<?xml version="1.0" encoding="UTF-8"?>
<svg width="60px" height="60px" viewBox="0 0 60 60" version="1.1" xmlns="http://www.w3.org/2000/svg" xmlns:xlink="http://www.w3.org/1999/xlink">
    <!-- Generator: Sketch 59.1 (86144) - https://sketch.com -->
    <title>Group 7</title>
    <desc>Created with Sketch.</desc>
    <g id="Page-1" stroke="none" stroke-width="1" fill="none" fill-rule="evenodd">
        <g id="01-Home" transform="translate(-323.000000, -2181.000000)" fill="#14B45C">
            <g id="Group-8" transform="translate(0.000000, 1915.000000)">
                <g id="Group-11" transform="translate(283.000000, 226.000000)">
                    <g id="Group-9">
                        <g id="Group-10" transform="translate(40.000000, 40.000000)">
                            <g id="Group-7">
                                <circle id="Oval-2" opacity="0.100000001" cx="30" cy="30" r="30"></circle>
                                <path d="M33.8976795,36.3884737 C32.3801572,36.3884737 31.1499622,37.6446566 31.1499622,39.1942368 C31.1499622,40.743817 32.3801572,42 33.8976795,42 C35.4152019,42 36.6453968,40.743817 36.6453968,39.1942368 C36.6440667,37.6452196 35.4146506,36.3898319 33.8976795,36.3884737 Z M27.0464793,36.3884693 C27.7762768,36.387166 28.4766573,36.6821163 28.9933812,37.2083699 C29.510105,37.7346235 29.8007947,38.4490214 29.8014337,39.1942368 C29.8014337,40.7428539 28.572701,41.9986331 27.0561225,41.9999903 C25.539544,42.0013452 24.3086646,40.7477652 24.3059991,39.1991506 C24.3033421,37.6505359 25.5299054,36.3925526 27.0464793,36.3884693 Z M34.3046314,38.1933864 C34.7002897,38.3615451 34.9576969,38.7566231 34.9567235,39.1942368 C34.9553905,39.7905228 34.481631,40.273187 33.8976795,40.273187 C33.4691181,40.273187 33.0828015,40.0094406 32.9190244,39.6050416 C32.7552473,39.2006425 32.8462974,38.7353146 33.1496815,38.4262272 C33.4530655,38.1171398 33.9089731,38.0252277 34.3046314,38.1933864 Z M27.4534311,38.1933864 C27.0577728,38.0252277 26.6018652,38.1171398 26.2984812,38.4262272 C25.9950971,38.7353146 25.904047,39.2006425 26.0678241,39.6050416 C26.2316012,40.0094406 26.6179178,40.273187 27.0464793,40.273187 C27.6304307,40.273187 28.1041902,39.7905228 28.1055232,39.1942368 C28.1064967,38.7566231 27.8490894,38.3615451 27.4534311,38.1933864 Z M21.4786728,22 C22.5399899,21.9972239 23.4634122,22.7411587 23.7077253,23.7957947 L23.7077253,23.7957947 L24.0502853,25.2541019 L38.1434938,25.2541019 C38.4030543,25.2502843 38.6499076,25.368597 38.8128735,25.5749243 C38.9758394,25.7812517 39.0368018,26.0526575 38.9781823,26.3108818 L38.9781823,26.3108818 L37.4197755,33.1688666 C37.0819075,34.680885 35.7614284,35.7507797 34.2426519,35.7431156 L34.2426519,35.7431156 L27.3432038,35.7431156 C25.8351072,35.7467169 24.5230594,34.6895985 24.1757298,33.1910368 L24.1757298,33.1910368 L22.0841838,24.1973219 C22.0202416,23.9196646 21.7773013,23.7236567 21.497972,23.7243574 L21.497972,23.7243574 L18.8443381,23.7243574 C18.5426851,23.7243574 18.2639463,23.5600278 18.1131199,23.29327 C17.9622934,23.0265122 17.9622934,22.697853 18.1131199,22.4310952 C18.2639463,22.1643374 18.5426851,22 18.8443381,22 L18.8443381,22 Z M37.0892774,26.9784515 L24.4555676,26.9784515 L25.8185705,32.7796563 C25.9845724,33.502218 26.6163807,34.0126258 27.3432038,34.011351 L27.3432038,34.011351 L34.2426519,34.011351 C34.9706853,34.0146887 35.6042924,33.5036365 35.7696976,32.7796563 L35.7696976,32.7796563 L37.0892774,26.9784515 Z" id="Combined-Shape" fill-rule="nonzero"></path>
                            </g>
                        </g>
                    </g>
                </g>
            </g>
        </g>
    </g>
</svg>