<?xml version="1.0" encoding="UTF-8"?>
<svg width="60px" height="60px" viewBox="0 0 60 60" version="1.1" xmlns="http://www.w3.org/2000/svg" xmlns:xlink="http://www.w3.org/1999/xlink">
    <!-- Generator: Sketch 59.1 (86144) - https://sketch.com -->
    <title>Group 7</title>
    <desc>Created with Sketch.</desc>
    <g id="Page-1" stroke="none" stroke-width="1" fill="none" fill-rule="evenodd" opacity="0.600000024">
        <g id="01-Home" transform="translate(-1253.000000, -2513.000000)" fill="#A1A4AC">
            <g id="Group-8" transform="translate(0.000000, 1915.000000)">
                <g id="Group-17" transform="translate(1213.000000, 226.000000)">
                    <g id="Group-9" transform="translate(0.000000, 332.000000)">
                        <g id="Group-10" transform="translate(40.000000, 40.000000)">
                            <g id="Group-7">
                                <circle id="Oval-2" opacity="0.100000001" cx="30" cy="30" r="30"></circle>
                                <path d="M28.1909856,23.6395748 L28.1878205,23.6395748 C27.8756113,23.6411202 27.6239901,23.8897045 27.6255726,24.1943638 C27.626703,24.4036515 27.5439596,25.0688243 27.1614412,25.3690683 C26.9317492,25.5496562 26.6030365,25.5896151 26.1565389,25.4911527 C25.8522423,25.4240394 25.5495282,25.6108088 25.4808015,25.9081828 C25.4120748,26.2055567 25.603334,26.5009438 25.9078567,26.5680571 C26.1542782,26.622366 26.3778661,26.6455466 26.5804291,26.6455466 C27.1899266,26.6455466 27.6072606,26.4353758 27.8697334,26.2293996 C28.7380865,25.5476692 28.7566246,24.3257205 28.7557455,24.1886238 C28.7545899,23.8848476 28.5018383,23.6395748 28.1909856,23.6395748 Z M25.1878086,31.5925071 C24.9034066,31.4673319 24.5685899,31.590741 24.4401794,31.8686874 C24.311769,32.1464131 24.4383708,32.4733699 24.7229989,32.5987659 C24.7465107,32.609142 27.0608379,33.6535935 27.0608379,35.8087269 C27.0608379,36.113607 27.3138155,36.360646 27.6260248,36.360646 C27.938234,36.360646 28.1912116,36.113607 28.1912116,35.8087269 C28.1914377,32.9484618 25.3105672,31.6465952 25.1878086,31.5925071 Z M40,26.9488813 C40,25.44722 39.1730186,24.0634486 37.8323953,23.3048911 C37.4100877,22.7176493 36.8980284,22.203923 36.3084254,21.7758546 C35.6656949,21.3093727 34.951977,20.9592353 34.1851314,20.7347146 C33.4668919,20.253662 32.629285,20 31.7557322,20 C31.5339529,20 30.97487,20.0512181 30.500113,20.4936364 C30.02513,20.0512181 29.4662732,20 29.2442678,20 C28.370715,20 27.5331081,20.253662 26.8148686,20.7344938 C26.048023,20.9592353 25.334079,21.3093727 24.6915746,21.7756339 C24.1019716,22.2034815 23.5896862,22.7174285 23.1676047,23.3046703 C21.8269814,24.0632278 21,25.44722 21,26.9486605 C21,27.8372501 21.2893757,28.6955946 21.8235903,29.4144139 C21.2952536,30.0151226 21,30.775667 21,31.5684435 C21,32.8248319 21.7266042,33.9558244 22.8526826,34.5203272 C22.8221625,34.6927467 22.8070155,34.8598678 22.8070155,35.0243396 C22.8070155,36.5911273 23.9387456,37.9349398 25.4869055,38.2669743 C25.9921826,39.1683684 26.8937687,39.7891669 27.9536071,39.9503273 C27.9755363,39.9536388 27.9976917,39.9556257 28.019847,39.9565088 L29.2515022,40 C29.7359804,40 30.1759218,39.8123475 30.5014695,39.5090128 C30.82973,39.8121268 31.274193,39.9997792 31.7686184,39.9997792 L31.7692967,39.9997792 L32.9803791,39.9565088 C33.0025344,39.9556257 33.0246897,39.9536388 33.046619,39.9503273 C34.1064574,39.7891669 35.0080435,39.1681476 35.5130945,38.2669743 C37.0612544,37.9351606 38.1929845,36.5913481 38.1929845,35.0243396 C38.1929845,34.8598678 38.1780636,34.6927467 38.1473174,34.5203272 C39.2733958,33.9558244 40,32.8248319 40,31.5684435 C40,30.775667 39.7049725,30.0149018 39.1764097,29.4144139 C39.7106243,28.6955946 40,27.8372501 40,26.9488813 Z M29.9347001,38.2287815 C29.9347001,38.5968011 29.6281427,38.896162 29.2718489,38.8966035 L28.0960342,38.8546576 C27.330319,38.727937 26.6923361,38.2426898 26.3853266,37.5516872 C26.3057482,37.3726447 26.135514,37.2481318 25.9372464,37.2238473 C24.7971515,37.0843222 23.9371631,36.1387745 23.9371631,35.0245604 C23.9371631,34.8205711 23.9744655,34.6097381 24.0542698,34.3611537 C24.1465083,34.0741558 23.9864474,33.7677304 23.6941328,33.6723588 C22.7586355,33.3670372 22.1301477,32.521718 22.1301477,31.568885 C22.1301477,30.9355027 22.4174887,30.3319241 22.9173399,29.9038557 C25.291803,28.6004437 26.8270766,30.2820306 26.8951251,30.3588577 C27.006806,30.4866822 27.1655105,30.5522502 27.3253454,30.5522502 C27.454208,30.5522502 27.5839749,30.5094213 27.6900039,30.4217765 C27.9282867,30.2248518 27.9581286,29.8767013 27.7564699,29.6440122 C27.0452387,28.8227567 25.1251859,27.6553376 22.7335412,28.7547603 C22.3440144,28.2255803 22.1301477,27.5986003 22.1301477,26.949102 C22.1301477,25.8088373 22.7801126,24.7593081 23.8259343,24.2100383 C23.9068691,24.1676509 23.9758219,24.1064983 24.0271409,24.0320996 C24.3920255,23.5026989 24.8421403,23.0417361 25.3655034,22.6620158 C25.923908,22.2566865 26.5471961,21.9564426 27.2175077,21.7698939 C27.2803565,21.7524533 27.3398141,21.7244158 27.3927156,21.6871061 C27.935069,21.3058404 28.5753126,21.1042796 29.2438157,21.1042796 C29.2915174,21.1042796 29.5395214,21.1137726 29.7321371,21.3018666 C29.9245267,21.4897398 29.9342479,21.7321427 29.9342479,21.7787246 L29.9342479,38.2287815 L29.9347001,38.2287815 Z M33.3086396,30.4182442 C33.4146687,30.5069928 33.5451138,30.5502633 33.6748807,30.5502633 C33.8340373,30.5502633 33.9925157,30.4851368 34.1044227,30.358637 C34.1693062,30.2857837 35.7057102,28.5988984 38.0826601,29.9034142 C38.5825113,30.3314826 38.8698523,30.9350612 38.8698523,31.5684435 C38.8698523,32.5212765 38.2411385,33.3665957 37.3056412,33.6719173 C37.0133265,33.7672889 36.8532656,34.0737143 36.9457302,34.360933 C37.0257606,34.6092965 37.0628369,34.8201296 37.0628369,35.0241189 C37.0628369,36.138333 36.2030746,37.0841014 35.0627536,37.2234058 C34.864486,37.2476902 34.6940257,37.3724239 34.6144474,37.5514664 C34.3074379,38.2424691 33.6694549,38.7277163 32.9039658,38.8544369 L31.7487239,38.8959412 C31.3718573,38.8959412 31.0652999,38.5965803 31.0652999,38.2285607 L31.0652999,21.7782831 C31.0652999,21.7317011 31.0750211,21.4892983 31.2676368,21.3014251 C31.4602525,21.1135518 31.7082565,21.103838 31.7559583,21.103838 C32.4244613,21.103838 33.0644789,21.3053989 33.6070583,21.6866645 C33.6601859,21.7239743 33.7196435,21.7520117 33.7822662,21.7694524 C34.4525778,21.956001 35.0758659,22.2560242 35.6344966,22.6615743 C36.1578597,23.0415153 36.6082006,23.5024781 36.9728591,24.0316581 C37.0241781,24.1060568 37.0931309,24.1672094 37.1740657,24.2095968 C38.2201135,24.7590873 38.8698523,25.8086166 38.8698523,26.9486605 C38.8698523,27.5981588 38.6559856,28.2251388 38.2662328,28.7543188 C35.8741359,27.6548961 33.9545352,28.8218737 33.243304,29.6435707 C33.0425496,29.8753767 33.0721654,30.220878 33.3086396,30.4182442 Z M33.3737492,36.360646 C33.6859584,36.360646 33.938936,36.113607 33.938936,35.8087269 C33.938936,33.6697096 36.2523589,32.6098043 36.2781314,32.5983244 C36.5616292,32.4724868 36.6877789,32.1461923 36.5595945,31.8689082 C36.4314101,31.5909618 36.0965934,31.4673319 35.8119653,31.5927279 C35.6894328,31.646816 32.8083362,32.9486826 32.8083362,35.8089477 C32.8085623,36.113607 33.0615399,36.360646 33.3737492,36.360646 Z M35.0916912,26.5680571 C35.3962138,26.5009438 35.5874731,26.2055567 35.5187464,25.9081828 C35.4500196,25.610588 35.1470795,25.4244809 34.8430089,25.4911527 C34.4044239,25.5880697 34.0673465,25.5472277 33.8408196,25.3712759 C33.4607879,25.0756681 33.3751056,24.4208714 33.3742013,24.1925977 C33.3748795,23.8886007 33.1234844,23.6411202 32.8119534,23.6395748 L32.8087884,23.6395748 C32.4981617,23.6395748 32.2454101,23.8848476 32.2435866,24.1886238 C32.2429233,24.3257205 32.2614614,25.5476692 33.1295884,26.2293996 C33.3920612,26.4355966 33.8091691,26.6455466 34.4186666,26.6455466 C34.6214557,26.6455466 34.8452697,26.622366 35.0916912,26.5680571 Z" id="Shape" fill-rule="nonzero"></path>
                            </g>
                        </g>
                    </g>
                </g>
            </g>
        </g>
    </g>
</svg>