<?xml version="1.0" encoding="UTF-8"?>
<svg width="60px" height="60px" viewBox="0 0 60 60" version="1.1" xmlns="http://www.w3.org/2000/svg" xmlns:xlink="http://www.w3.org/1999/xlink">
    <!-- Generator: Sketch 59.1 (86144) - https://sketch.com -->
    <title>Group 7</title>
    <desc>Created with Sketch.</desc>
    <g id="Page-1" stroke="none" stroke-width="1" fill="none" fill-rule="evenodd" opacity="0.600000024">
        <g id="01-Home" transform="translate(-1253.000000, -2181.000000)" fill="#A1A4AC">
            <g id="Group-8" transform="translate(0.000000, 1915.000000)">
                <g id="Group-17" transform="translate(1213.000000, 226.000000)">
                    <g id="Group-9">
                        <g id="Group-10" transform="translate(40.000000, 40.000000)">
                            <g id="Group-7">
                                <circle id="Oval-2" opacity="0.100000001" cx="30" cy="30" r="30"></circle>
                                <path d="M21.8248053,31.1319186 C21.8248053,30.7867423 22.1046303,30.5069216 22.449812,30.5069216 C22.7949937,30.5069216 23.0748187,30.7867423 23.0748187,31.1319186 C23.0748187,35.5550218 26.3067283,38.7500061 30.7292757,38.7500061 C35.1569309,38.7443243 38.7447897,35.1563818 38.7502991,30.7287955 C38.7502991,26.3063173 35.6652661,23.0747706 31.2420937,23.0747706 C30.896912,23.0747706 30.617087,22.79495 30.617087,22.4497737 C30.617087,22.1045974 30.896912,21.8247768 31.2420937,21.8247768 C36.3540234,21.8247768 40,25.6172582 40,30.7287955 C39.9944891,35.846612 35.8471718,39.9941442 30.7292757,40 C25.6170334,40 21.8248053,36.2440809 21.8248053,31.1319186 Z M20.6251049,29.3800522 C20.2799233,29.3800522 20.0000982,29.1002315 20.0000982,28.7550552 C19.9890639,26.4297312 20.9079292,24.1964568 22.5522258,22.5521859 C24.1965224,20.907915 26.4298316,19.9890641 28.755192,20.0000982 C29.1003737,20.0000982 29.3801987,20.2799189 29.3801987,20.6250952 L29.3801987,28.7550552 C29.3801987,29.1002315 29.1003737,29.3800522 28.755192,29.3800522 L20.6251049,29.3800522 Z M21.2757369,28.1300583 L28.1298728,28.1300583 L28.1298728,21.275717 C24.467826,21.5582105 21.5582349,24.4677562 21.2757369,28.1297458 L21.2757369,28.1300583 Z" id="Shape" fill-rule="nonzero"></path>
                            </g>
                        </g>
                    </g>
                </g>
            </g>
        </g>
    </g>
</svg>