<?xml version="1.0" encoding="UTF-8"?>
<svg width="44px" height="36px" viewBox="0 0 44 36" version="1.1" xmlns="http://www.w3.org/2000/svg" xmlns:xlink="http://www.w3.org/1999/xlink">
    <!-- Generator: Sketch 59.1 (86144) - https://sketch.com -->
    <title>Group 4</title>
    <desc>Created with Sketch.</desc>
    <g id="Page-1" stroke="none" stroke-width="1" fill="none" fill-rule="evenodd">
        <g id="01-Home" transform="translate(-257.000000, -62.000000)" fill="#14B45C">
            <g id="Group-6" transform="translate(-1.000000, 0.000000)">
                <g id="Group-14" transform="translate(256.000000, 60.000000)">
                    <g id="Group-5">
                        <g id="Group-4">
                            <path d="M13.8298517,4 L34.1701483,4 C37.9359236,4 39.3014848,4.39209541 40.678196,5.12836861 C42.0549072,5.86464181 43.1353582,6.94509282 43.8716314,8.32180401 C44.6079046,9.69851521 45,11.0640764 45,14.8298517 L45,25.1701483 C45,28.9359236 44.6079046,30.3014848 43.8716314,31.678196 C43.1353582,33.0549072 42.0549072,34.1353582 40.678196,34.8716314 C39.3014848,35.6079046 37.9359236,36 34.1701483,36 L13.8298517,36 C10.0640764,36 8.69851521,35.6079046 7.32180401,34.8716314 C5.94509282,34.1353582 4.86464181,33.0549072 4.12836861,31.678196 C3.39209541,30.3014848 3,28.9359236 3,25.1701483 L3,14.8298517 C3,11.0640764 3.39209541,9.69851521 4.12836861,8.32180401 C4.86464181,6.94509282 5.94509282,5.86464181 7.32180401,5.12836861 C8.69851521,4.39209541 10.0640764,4 13.8298517,4 Z" id="Combined-Shape" opacity="0.200000003" transform="translate(24.000000, 20.000000) rotate(-10.000000) translate(-24.000000, -20.000000) "></path>
                            <path d="M32.7444592,5 C36.3105342,5 37.6036791,5.37130244 38.9073828,6.06853082 C40.2110865,6.76575919 41.2342408,7.78891348 41.9314692,9.09261719 C42.6286976,10.3963209 43,11.6894658 43,15.2555408 L43,24.7444592 C43,28.3105342 42.6286976,29.6036791 41.9314692,30.9073828 C41.2342408,32.2110865 40.2110865,33.2342408 38.9073828,33.9314692 C37.6036791,34.6286976 36.3105342,35 32.7444592,35 L13.2555408,35 C9.68946584,35 8.39632089,34.6286976 7.09261719,33.9314692 C5.78891348,33.2342408 4.76575919,32.2110865 4.06853082,30.9073828 C3.37130244,29.6036791 3,28.3105342 3,24.7444592 L3,15.2555408 C3,11.6894658 3.37130244,10.3963209 4.06853082,9.09261719 C4.76575919,7.78891348 5.78891348,6.76575919 7.09261719,6.06853082 C8.39632089,5.37130244 9.68946584,5 13.2555408,5 L32.7444592,5 Z M21.1567567,12.5405405 C20.9096524,11.8198198 19.8903475,11.8198198 19.6432432,12.5405405 L19.6432432,12.5405405 L17.4285714,19 L14.8,19 C14.3581722,19 14,19.3581722 14,19.8 C14,20.2418277 14.3581722,20.5999999 14.8,20.5999999 L14.8,20.5999999 L18,20.5999999 C18.3418293,20.5999999 18.6458931,20.3828115 18.7567567,20.0594594 L18.7567567,20.0594594 L20.4,15.2666665 L24.4432432,27.0594594 C24.6903475,27.7801801 25.7096524,27.7801801 25.9567567,27.0594594 L25.9567567,27.0594594 L28.1714285,20.5999999 L30.8,20.5999999 C31.2418277,20.5999999 31.5999999,20.2418277 31.5999999,19.8 C31.5999999,19.3581722 31.2418277,19 30.8,19 L30.8,19 L27.6,19 C27.2581706,19 26.9541068,19.2171884 26.8432432,19.5405405 L26.8432432,19.5405405 L25.2,24.3333334 Z" id="Combined-Shape"></path>
                        </g>
                    </g>
                </g>
            </g>
        </g>
    </g>
</svg>