<?xml version="1.0" encoding="UTF-8"?>
<svg width="60px" height="60px" viewBox="0 0 60 60" version="1.1" xmlns="http://www.w3.org/2000/svg" xmlns:xlink="http://www.w3.org/1999/xlink">
    <!-- Generator: Sketch 59.1 (86144) - https://sketch.com -->
    <title>Group 7</title>
    <desc>Created with Sketch.</desc>
    <g id="Page-1" stroke="none" stroke-width="1" fill="none" fill-rule="evenodd" opacity="0.600000024">
        <g id="01-Home" transform="translate(-323.000000, -2513.000000)" fill="#A1A4AC">
            <g id="Group-8" transform="translate(0.000000, 1915.000000)">
                <g id="Group-11" transform="translate(283.000000, 226.000000)">
                    <g id="Group-9" transform="translate(0.000000, 332.000000)">
                        <g id="Group-10" transform="translate(40.000000, 40.000000)">
                            <g id="Group-7">
                                <circle id="Oval-2" opacity="0.100000001" cx="30" cy="30" r="30"></circle>
                                <path d="M30,40 C35.5050505,40 40,35.5050505 40,30 C40,24.4949495 35.5050505,20 30,20 C24.4949495,20 20,24.469697 20,30 C20,35.5050505 24.4949495,40 30,40 Z M30,21.4393939 C34.7222222,21.4393939 38.5353535,25.2525253 38.5353535,29.9747475 C38.5353535,34.6969697 34.7222222,38.5353535 30,38.5353535 C25.2777778,38.5353535 21.4646465,34.6969697 21.4646465,30 C21.4646465,25.3030303 25.2777778,21.4393939 30,21.4393939 Z M30.1767677,22.8282828 C27.8030303,22.8282828 25.8838384,24.7474747 25.8838384,27.1212121 L25.8838384,29.7474747 C25.8838384,30.8585859 26.3131313,31.9191919 27.0707071,32.7020202 L26.9570707,32.7777778 L26.9570707,32.7777778 L23.8131313,34.8737374 C24.1414141,35.2525253 24.469697,35.6060606 24.8484848,35.9343434 L27.6767677,34.0656566 C27.9292929,33.8888889 28.2323232,33.7626263 28.5606061,33.7373737 L28.7373737,33.7373737 C29.0909091,33.7373737 29.3939394,33.510101 29.469697,33.1565657 C29.5454545,32.8282828 29.3686869,32.4747475 29.0656566,32.3232323 C28.0555556,31.8686869 27.3989899,30.8585859 27.3989899,29.7474747 L27.3989899,27.1212121 C27.3989899,25.5555556 28.6616162,24.2929293 30.2272727,24.2929293 C31.7929293,24.2929293 33.030303,25.5555556 33.030303,27.1212121 L33.030303,29.7474747 C33.030303,30.8838384 32.3484848,31.9191919 31.2878788,32.3484848 C30.959596,32.4747475 30.7828283,32.8282828 30.8585859,33.1565657 C30.9343434,33.4848485 31.2121212,33.7373737 31.5656566,33.7626263 L31.7424242,33.7626263 C31.969697,33.8131313 32.1717172,33.9141414 32.3484848,34.040404 L35.1767677,35.8838384 C35.5555556,35.5555556 35.8838384,35.2020202 36.1868687,34.7979798 L33.1565657,32.8282828 C33.989899,32.0454545 34.469697,30.9343434 34.469697,29.7474747 L34.469697,27.1212121 C34.469697,24.7474747 32.5505051,22.8282828 30.1767677,22.8282828 Z" id="Combined-Shape" fill-rule="nonzero"></path>
                            </g>
                        </g>
                    </g>
                </g>
            </g>
        </g>
    </g>
</svg>